<?xml version="1.0" encoding="utf-8"?>
<!-- Generator: Adobe Illustrator 24.0.1, SVG Export Plug-In . SVG Version: 6.00 Build 0)  -->
<svg version="1.1" id="Calque_1" xmlns="http://www.w3.org/2000/svg" xmlns:xlink="http://www.w3.org/1999/xlink" x="0px" y="0px"
	 viewBox="0 0 30 30" style="enable-background:new 0 0 182.4 30; filter: blur(0.4px);" xml:space="preserve">
<style type="text/css">
	.st0{fill:#61C2E1;}
	.st1{fill:#FFFFFF;}
	.st2{fill:#C7C6C6;}
	.st3{opacity:0.3;fill:#fff;}
	.st4{opacity:0.5;fill:#fff;}
</style>

		<g>
			<g>
				<path class="st3" d="M28.8,21.5L22.3,15l0,0l0,0l-7.4,7.4l0,0l6.4,6.4c1.6,1.6,5,1.5,7-0.5S30.3,23.1,28.8,21.5z"/>
				<path class="st3" d="M22.3,15l6.4-6.4c1.6-1.6,1.5-5-0.5-7c-2-2-5.4-2.1-7-0.5l-6.4,6.4l0,0L22.3,15z"/>
				<path class="st1" d="M14,21.6L7.4,15l7.5-7.5l0,0l0,0l0,0l-4.7-4.7c0,0-2.5-2.8-4.9-2.8C2.5,0.1,0,2.4,0,4.6v20.9
					c0,2.2,2.5,4.6,5.3,4.6c2.4,0,4.9-2.8,4.9-2.8l4.7-4.7l0,0L14,21.6z"/>
			</g>
			<polygon class="st4" points="21.4,16 22.3,15 22.3,15 14.9,7.6 14.9,7.6 14.9,7.6 7.4,15 14,21.6 14.9,22.5 14.9,22.5 14.9,22.5 
				14.9,22.5 			"/>
		</g>


</svg>
