<svg width="907" height="128" viewBox="0 0 907 128" fill="none" xmlns="http://www.w3.org/2000/svg">
<path d="M104.736 125L79.712 79.92C91.12 75.872 104.184 64.464 104.184 43.12C104.184 20.304 88.728 2.27199 61.496 2.27199H0.0400004V125H31.688V83.784H47.88L68.488 125H104.736ZM56.712 56.184H31.688V29.872H56.712C64.992 29.872 71.984 34.656 71.984 42.936C71.984 51.584 64.992 56.184 56.712 56.184ZM180.12 127.208C217.656 127.208 245.624 101.08 245.624 63.728C245.624 26.376 217.656 0.247994 180.12 0.247994C142.584 0.247994 114.432 26.376 114.432 63.728C114.432 101.08 142.584 127.208 180.12 127.208ZM180.12 99.24C159.696 99.24 146.632 83.6 146.632 63.728C146.632 43.672 159.696 28.216 180.12 28.216C200.36 28.216 213.424 43.672 213.424 63.728C213.424 83.6 200.36 99.24 180.12 99.24ZM373.866 125L327.498 2.27199H287.754L241.57 125H277.45L283.522 107.336H331.914L337.986 125H373.866ZM323.266 79.736H291.986L307.626 33.552L323.266 79.736ZM433.635 125C472.091 125 499.875 101.632 499.875 63.544C499.875 25.456 472.091 2.27199 433.451 2.27199H381.931V125H433.635ZM433.451 97.4H413.579V29.872H433.635C456.083 29.872 467.491 44.592 467.491 63.544C467.491 81.76 454.979 97.4 433.451 97.4ZM653.906 125V2.27199H609.93L584.17 68.88L558.594 2.27199H514.618V125H546.266V45.144L577.178 125H591.162L622.258 45.144V125H653.906ZM794.21 125L747.842 2.27199H708.098L661.913 125H697.794L703.866 107.336H752.258L758.33 125H794.21ZM743.61 79.736H712.33L727.97 33.552L743.61 79.736ZM833.922 125V83.784H863.73C891.33 83.784 906.418 65.2 906.418 43.12C906.418 20.856 891.33 2.27199 863.73 2.27199H802.274V125H833.922ZM859.498 56.184H833.922V29.872H859.498C867.962 29.872 874.218 34.656 874.218 43.12C874.218 51.4 867.962 56.184 859.498 56.184Z" fill="#020412"/>
</svg>
