<svg width="907" height="128" viewBox="0 0 907 128" fill="none" xmlns="http://www.w3.org/2000/svg">
<path d="M104.736 125V126H106.435L105.61 124.515L104.736 125ZM79.712 79.92L79.3776 78.9776L78.2644 79.3726L78.8377 80.4053L79.712 79.92ZM0.0400009 2.27199V1.27199H-0.959999V2.27199H0.0400009ZM0.0400009 125H-0.959999V126H0.0400009V125ZM31.688 125V126H32.688V125H31.688ZM31.688 83.784V82.784H30.688V83.784H31.688ZM47.88 83.784L48.7744 83.3368L48.498 82.784H47.88V83.784ZM68.488 125L67.5936 125.447L67.87 126H68.488V125ZM31.688 56.184H30.688V57.184H31.688V56.184ZM31.688 29.872V28.872H30.688V29.872H31.688ZM105.61 124.515L80.5863 79.4347L78.8377 80.4053L103.862 125.485L105.61 124.515ZM80.0464 80.8624C91.7793 76.6992 105.184 64.961 105.184 43.12H103.184C103.184 63.967 90.4607 75.0448 79.3776 78.9776L80.0464 80.8624ZM105.184 43.12C105.184 31.4847 101.24 21.0085 93.7635 13.4373C86.2822 5.86128 75.3408 1.27199 61.496 1.27199V3.27199C74.8832 3.27199 85.2858 7.6987 92.3405 14.8426C99.3999 21.9915 103.184 31.9393 103.184 43.12H105.184ZM61.496 1.27199H0.0400009V3.27199H61.496V1.27199ZM-0.959999 2.27199V125H1.04V2.27199H-0.959999ZM0.0400009 126H31.688V124H0.0400009V126ZM32.688 125V83.784H30.688V125H32.688ZM31.688 84.784H47.88V82.784H31.688V84.784ZM46.9856 84.2312L67.5936 125.447L69.3824 124.553L48.7744 83.3368L46.9856 84.2312ZM68.488 126H104.736V124H68.488V126ZM56.712 55.184H31.688V57.184H56.712V55.184ZM32.688 56.184V29.872H30.688V56.184H32.688ZM31.688 30.872H56.712V28.872H31.688V30.872ZM56.712 30.872C60.6694 30.872 64.254 32.0162 66.8275 34.0792C69.38 36.1254 70.984 39.1073 70.984 42.936H72.984C72.984 38.4847 71.092 34.9345 68.0785 32.5188C65.086 30.1198 61.0346 28.872 56.712 28.872V30.872ZM70.984 42.936C70.984 46.9609 69.3704 49.9842 66.8275 52.0228C64.2598 54.0812 60.6783 55.184 56.712 55.184V57.184C61.0257 57.184 65.0802 55.9868 68.0785 53.5832C71.1016 51.1598 72.984 47.5591 72.984 42.936H70.984ZM180.12 128.208C218.169 128.208 246.624 101.672 246.624 63.728H244.624C244.624 100.488 217.144 126.208 180.12 126.208V128.208ZM246.624 63.728C246.624 25.7843 218.169 -0.752007 180.12 -0.752007V1.24799C217.144 1.24799 244.624 26.9677 244.624 63.728H246.624ZM180.12 -0.752007C142.076 -0.752007 113.432 25.7807 113.432 63.728H115.432C115.432 26.9713 143.093 1.24799 180.12 1.24799V-0.752007ZM113.432 63.728C113.432 101.675 142.076 128.208 180.12 128.208V126.208C143.093 126.208 115.432 100.485 115.432 63.728H113.432ZM180.12 98.24C170.18 98.24 162.08 94.4412 156.457 88.2629C150.826 82.0752 147.632 73.4467 147.632 63.728H145.632C145.632 73.8813 148.971 83.0088 154.978 89.6091C160.993 96.2188 169.637 100.24 180.12 100.24V98.24ZM147.632 63.728C147.632 53.9156 150.827 45.2885 156.456 39.1254C162.077 32.9715 170.176 29.216 180.12 29.216V27.216C169.641 27.216 160.996 31.1885 154.979 37.7766C148.97 44.3555 145.632 53.4844 145.632 63.728H147.632ZM180.12 29.216C189.97 29.216 198.024 32.9695 203.623 39.1239C209.23 45.2875 212.424 53.9155 212.424 63.728H214.424C214.424 53.4845 211.087 44.3565 205.102 37.7781C199.109 31.1904 190.511 27.216 180.12 27.216V29.216ZM212.424 63.728C212.424 83.1424 199.718 98.24 180.12 98.24V100.24C201.003 100.24 214.424 84.0576 214.424 63.728H212.424ZM373.866 125V126H375.313L374.801 124.647L373.866 125ZM327.498 2.27199L328.433 1.91856L328.189 1.27199H327.498V2.27199ZM287.754 2.27199V1.27199H287.062L286.818 1.91979L287.754 2.27199ZM241.57 125L240.634 124.648L240.125 126H241.57V125ZM277.45 125V126H278.163L278.395 125.325L277.45 125ZM283.522 107.336V106.336H282.808L282.576 107.011L283.522 107.336ZM331.914 107.336L332.859 107.011L332.627 106.336H331.914V107.336ZM337.986 125L337.04 125.325L337.272 126H337.986V125ZM323.266 79.736V80.736H324.66L324.213 79.4152L323.266 79.736ZM291.986 79.736L291.039 79.4152L290.591 80.736H291.986V79.736ZM307.626 33.552L308.573 33.2312L307.626 30.4343L306.679 33.2312L307.626 33.552ZM374.801 124.647L328.433 1.91856L326.562 2.62542L372.93 125.353L374.801 124.647ZM327.498 1.27199H287.754V3.27199H327.498V1.27199ZM286.818 1.91979L240.634 124.648L242.506 125.352L288.69 2.62419L286.818 1.91979ZM241.57 126H277.45V124H241.57V126ZM278.395 125.325L284.467 107.661L282.576 107.011L276.504 124.675L278.395 125.325ZM283.522 108.336H331.914V106.336H283.522V108.336ZM330.968 107.661L337.04 125.325L338.931 124.675L332.859 107.011L330.968 107.661ZM337.986 126H373.866V124H337.986V126ZM323.266 78.736H291.986V80.736H323.266V78.736ZM292.933 80.0567L308.573 33.8727L306.679 33.2312L291.039 79.4152L292.933 80.0567ZM306.679 33.8727L322.319 80.0567L324.213 79.4152L308.573 33.2312L306.679 33.8727ZM381.931 2.27199V1.27199H380.931V2.27199H381.931ZM381.931 125H380.931V126H381.931V125ZM413.579 97.4H412.579V98.4H413.579V97.4ZM413.579 29.872V28.872H412.579V29.872H413.579ZM433.635 126C453.062 126 469.876 120.096 481.845 109.298C493.826 98.4888 500.875 82.8462 500.875 63.544H498.875C498.875 82.3298 492.031 97.4152 480.506 107.812C468.969 118.22 452.663 124 433.635 124V126ZM500.875 63.544C500.875 44.2413 493.826 28.6435 481.82 17.8804C469.826 7.12821 452.967 1.27199 433.451 1.27199V3.27199C452.575 3.27199 468.927 9.00777 480.485 19.3696C492.031 29.7205 498.875 44.7586 498.875 63.544H500.875ZM433.451 1.27199H381.931V3.27199H433.451V1.27199ZM380.931 2.27199V125H382.931V2.27199H380.931ZM381.931 126H433.635V124H381.931V126ZM433.451 96.4H413.579V98.4H433.451V96.4ZM414.579 97.4V29.872H412.579V97.4H414.579ZM413.579 30.872H433.635V28.872H413.579V30.872ZM433.635 30.872C444.63 30.872 452.812 34.4698 458.25 40.2841C463.699 46.1097 466.491 54.264 466.491 63.544H468.491C468.491 53.872 465.578 45.1903 459.711 38.9179C453.833 32.6342 445.087 28.872 433.635 28.872V30.872ZM466.491 63.544C466.491 72.425 463.442 80.6356 457.815 86.6179C452.198 92.5903 443.958 96.4 433.451 96.4V98.4C444.471 98.4 453.251 94.3897 459.272 87.9881C465.284 81.5964 468.491 72.8789 468.491 63.544H466.491ZM653.906 125V126H654.906V125H653.906ZM653.906 2.27199H654.906V1.27199H653.906V2.27199ZM609.93 2.27199V1.27199H609.245L608.997 1.91129L609.93 2.27199ZM584.17 68.88L583.237 69.2385L584.167 71.661L585.103 69.2407L584.17 68.88ZM558.594 2.27199L559.528 1.91353L559.281 1.27199H558.594V2.27199ZM514.618 2.27199V1.27199H513.618V2.27199H514.618ZM514.618 125H513.618V126H514.618V125ZM546.266 125V126H547.266V125H546.266ZM546.266 45.144L547.199 44.783L545.266 45.144H546.266ZM577.178 125L576.246 125.361L576.493 126H577.178V125ZM591.162 125V126H591.846L592.094 125.363L591.162 125ZM622.258 45.144H623.258L621.326 44.7811L622.258 45.144ZM622.258 125H621.258V126H622.258V125ZM654.906 125V2.27199H652.906V125H654.906ZM653.906 1.27199H609.93V3.27199H653.906V1.27199ZM608.997 1.91129L583.237 68.5193L585.103 69.2407L610.863 2.63269L608.997 1.91129ZM585.104 68.5215L559.528 1.91353L557.661 2.63045L583.237 69.2385L585.104 68.5215ZM558.594 1.27199H514.618V3.27199H558.594V1.27199ZM513.618 2.27199V125H515.618V2.27199H513.618ZM514.618 126H546.266V124H514.618V126ZM547.266 125V45.144H545.266V125H547.266ZM545.334 45.505L576.246 125.361L578.111 124.639L547.199 44.783L545.334 45.505ZM577.178 126H591.162V124H577.178V126ZM592.094 125.363L623.19 45.5069L621.326 44.7811L590.23 124.637L592.094 125.363ZM621.258 45.144V125H623.258V45.144H621.258ZM622.258 126H653.906V124H622.258V126ZM794.209 125V126H795.656L795.145 124.647L794.209 125ZM747.841 2.27199L748.777 1.91856L748.533 1.27199H747.841V2.27199ZM708.097 2.27199V1.27199H707.405L707.162 1.91979L708.097 2.27199ZM661.914 125L660.978 124.648L660.469 126H661.914V125ZM697.794 125V126H698.507L698.739 125.325L697.794 125ZM703.865 107.336V106.336H703.152L702.92 107.011L703.865 107.336ZM752.258 107.336L753.203 107.011L752.971 106.336H752.258V107.336ZM758.33 125L757.384 125.325L757.616 126H758.33V125ZM743.609 79.736V80.736H745.004L744.557 79.4152L743.609 79.736ZM712.33 79.736L711.382 79.4152L710.935 80.736H712.33V79.736ZM727.969 33.552L728.917 33.2312L727.969 30.4343L727.022 33.2312L727.969 33.552ZM795.145 124.647L748.777 1.91856L746.906 2.62542L793.274 125.353L795.145 124.647ZM747.841 1.27199H708.097V3.27199H747.841V1.27199ZM707.162 1.91979L660.978 124.648L662.849 125.352L709.033 2.62419L707.162 1.91979ZM661.914 126H697.794V124H661.914V126ZM698.739 125.325L704.811 107.661L702.92 107.011L696.848 124.675L698.739 125.325ZM703.865 108.336H752.258V106.336H703.865V108.336ZM751.312 107.661L757.384 125.325L759.275 124.675L753.203 107.011L751.312 107.661ZM758.33 126H794.209V124H758.33V126ZM743.609 78.736H712.33V80.736H743.609V78.736ZM713.277 80.0567L728.917 33.8727L727.022 33.2312L711.382 79.4152L713.277 80.0567ZM727.022 33.8727L742.662 80.0567L744.557 79.4152L728.917 33.2312L727.022 33.8727ZM833.922 125V126H834.922V125H833.922ZM833.922 83.784V82.784H832.922V83.784H833.922ZM802.274 2.27199V1.27199H801.274V2.27199H802.274ZM802.274 125H801.274V126H802.274V125ZM833.922 56.184H832.922V57.184H833.922V56.184ZM833.922 29.872V28.872H832.922V29.872H833.922ZM834.922 125V83.784H832.922V125H834.922ZM833.922 84.784H863.73V82.784H833.922V84.784ZM863.73 84.784C877.765 84.784 888.707 80.0529 896.14 72.4302C903.567 64.8148 907.418 54.3875 907.418 43.12H905.418C905.418 53.9325 901.726 63.8372 894.708 71.0338C887.698 78.2231 877.296 82.784 863.73 82.784V84.784ZM907.418 43.12C907.418 31.7626 903.568 21.2892 896.141 13.6499C888.708 6.00321 877.765 1.27199 863.73 1.27199V3.27199C877.296 3.27199 887.697 7.83277 894.707 15.044C901.725 22.2628 905.418 32.2134 905.418 43.12H907.418ZM863.73 1.27199H802.274V3.27199H863.73V1.27199ZM801.274 2.27199V125H803.274V2.27199H801.274ZM802.274 126H833.922V124H802.274V126ZM859.498 55.184H833.922V57.184H859.498V55.184ZM834.922 56.184V29.872H832.922V56.184H834.922ZM833.922 30.872H859.498V28.872H833.922V30.872ZM859.498 30.872C863.55 30.872 866.98 32.0166 869.38 34.0803C871.763 36.1283 873.218 39.154 873.218 43.12H875.218C875.218 38.622 873.546 35.0236 870.684 32.5637C867.841 30.1194 863.911 28.872 859.498 28.872V30.872ZM873.218 43.12C873.218 46.9872 871.768 49.9672 869.384 51.9954C866.982 54.0393 863.55 55.184 859.498 55.184V57.184C863.911 57.184 867.839 55.9367 870.68 53.5186C873.541 51.0848 875.218 47.5328 875.218 43.12H873.218Z" fill="url(#paint0_linear_1918_23722)"/>
<defs>
<linearGradient id="paint0_linear_1918_23722" x1="-11" y1="-44" x2="909.707" y2="181.198" gradientUnits="userSpaceOnUse">
<stop stop-color="#33CCFF"/>
<stop offset="1" stop-color="#3994FF"/>
</linearGradient>
</defs>
</svg>
