<svg id="visual" viewBox="0 0 1920 1080" width="1920" height="1080" xmlns="http://www.w3.org/2000/svg" xmlns:xlink="http://www.w3.org/1999/xlink" version="1.1"><path d="M1053 0L487 0L487 83L966 83L966 166L977 166L977 249L498 249L498 332L635 332L635 415L529 415L529 498L897 498L897 582L660 582L660 665L481 665L481 748L975 748L975 831L852 831L852 914L606 914L606 997L667 997L667 1080L0 1080L0 997L0 997L0 914L0 914L0 831L0 831L0 748L0 748L0 665L0 665L0 582L0 582L0 498L0 498L0 415L0 415L0 332L0 332L0 249L0 249L0 166L0 166L0 83L0 83L0 0L0 0Z" fill="#160e53"></path><path d="M1014 0L654 0L654 83L452 83L452 166L648 166L648 249L777 249L777 332L500 332L500 415L957 415L957 498L754 498L754 582L961 582L961 665L883 665L883 748L505 748L505 831L750 831L750 914L579 914L579 997L890 997L890 1080L0 1080L0 997L0 997L0 914L0 914L0 831L0 831L0 748L0 748L0 665L0 665L0 582L0 582L0 498L0 498L0 415L0 415L0 332L0 332L0 249L0 249L0 166L0 166L0 83L0 83L0 0L0 0Z" fill="#191a60"></path><path d="M387 0L722 0L722 83L576 83L576 166L404 166L404 249L885 249L885 332L556 332L556 415L838 415L838 498L721 498L721 582L396 582L396 665L411 665L411 748L694 748L694 831L550 831L550 914L541 914L541 997L580 997L580 1080L0 1080L0 997L0 997L0 914L0 914L0 831L0 831L0 748L0 748L0 665L0 665L0 582L0 582L0 498L0 498L0 415L0 415L0 332L0 332L0 249L0 249L0 166L0 166L0 83L0 83L0 0L0 0Z" fill="#1b256c"></path><path d="M783 0L450 0L450 83L856 83L856 166L645 166L645 249L581 249L581 332L676 332L676 415L548 415L548 498L624 498L624 582L822 582L822 665L626 665L626 748L364 748L364 831L822 831L822 914L323 914L323 997L770 997L770 1080L0 1080L0 997L0 997L0 914L0 914L0 831L0 831L0 748L0 748L0 665L0 665L0 582L0 582L0 498L0 498L0 415L0 415L0 332L0 332L0 249L0 249L0 166L0 166L0 83L0 83L0 0L0 0Z" fill="#1d3079"></path><path d="M347 0L287 0L287 83L568 83L568 166L629 166L629 249L358 249L358 332L555 332L555 415L619 415L619 498L542 498L542 582L336 582L336 665L460 665L460 748L718 748L718 831L547 831L547 914L392 914L392 997L555 997L555 1080L0 1080L0 997L0 997L0 914L0 914L0 831L0 831L0 748L0 748L0 665L0 665L0 582L0 582L0 498L0 498L0 415L0 415L0 332L0 332L0 249L0 249L0 166L0 166L0 83L0 83L0 0L0 0Z" fill="#1f3c85"></path><path d="M661 0L467 0L467 83L391 83L391 166L256 166L256 249L442 249L442 332L535 332L535 415L351 415L351 498L541 498L541 582L550 582L550 665L648 665L648 748L548 748L548 831L636 831L636 914L538 914L538 997L281 997L281 1080L0 1080L0 997L0 997L0 914L0 914L0 831L0 831L0 748L0 748L0 665L0 665L0 582L0 582L0 498L0 498L0 415L0 415L0 332L0 332L0 249L0 249L0 166L0 166L0 83L0 83L0 0L0 0Z" fill="#204792"></path><path d="M202 0L591 0L591 83L455 83L455 166L335 166L335 249L544 249L544 332L213 332L213 415L272 415L272 498L418 498L418 582L386 582L386 665L220 665L220 748L430 748L430 831L229 831L229 914L278 914L278 997L306 997L306 1080L0 1080L0 997L0 997L0 914L0 914L0 831L0 831L0 748L0 748L0 665L0 665L0 582L0 582L0 498L0 498L0 415L0 415L0 332L0 332L0 249L0 249L0 166L0 166L0 83L0 83L0 0L0 0Z" fill="#22539e"></path><path d="M171 0L265 0L265 83L295 83L295 166L268 166L268 249L373 249L373 332L214 332L214 415L222 415L222 498L473 498L473 582L375 582L375 665L412 665L412 748L353 748L353 831L398 831L398 914L322 914L322 997L283 997L283 1080L0 1080L0 997L0 997L0 914L0 914L0 831L0 831L0 748L0 748L0 665L0 665L0 582L0 582L0 498L0 498L0 415L0 415L0 332L0 332L0 249L0 249L0 166L0 166L0 83L0 83L0 0L0 0Z" fill="#245faa"></path><path d="M195 0L193 0L193 83L338 83L338 166L256 166L256 249L316 249L316 332L195 332L195 415L188 415L188 498L359 498L359 582L303 582L303 665L368 665L368 748L383 748L383 831L199 831L199 914L354 914L354 997L330 997L330 1080L0 1080L0 997L0 997L0 914L0 914L0 831L0 831L0 748L0 748L0 665L0 665L0 582L0 582L0 498L0 498L0 415L0 415L0 332L0 332L0 249L0 249L0 166L0 166L0 83L0 83L0 0L0 0Z" fill="#266bb6"></path><path d="M299 0L296 0L296 83L284 83L284 166L92 166L92 249L271 249L271 332L152 332L152 415L287 415L287 498L144 498L144 582L280 582L280 665L316 665L316 748L255 748L255 831L227 831L227 914L207 914L207 997L273 997L273 1080L0 1080L0 997L0 997L0 914L0 914L0 831L0 831L0 748L0 748L0 665L0 665L0 582L0 582L0 498L0 498L0 415L0 415L0 332L0 332L0 249L0 249L0 166L0 166L0 83L0 83L0 0L0 0Z" fill="#2977c2"></path><path d="M251 0L60 0L60 83L182 83L182 166L61 166L61 249L118 249L118 332L76 332L76 415L163 415L163 498L121 498L121 582L114 582L114 665L169 665L169 748L185 748L185 831L155 831L155 914L242 914L242 997L139 997L139 1080L0 1080L0 997L0 997L0 914L0 914L0 831L0 831L0 748L0 748L0 665L0 665L0 582L0 582L0 498L0 498L0 415L0 415L0 332L0 332L0 249L0 249L0 166L0 166L0 83L0 83L0 0L0 0Z" fill="#2d83ce"></path><path d="M83 0L19 0L19 83L45 83L45 166L40 166L40 249L90 249L90 332L161 332L161 415L154 415L154 498L105 498L105 582L60 582L60 665L55 665L55 748L154 748L154 831L119 831L119 914L55 914L55 997L58 997L58 1080L0 1080L0 997L0 997L0 914L0 914L0 831L0 831L0 748L0 748L0 665L0 665L0 582L0 582L0 498L0 498L0 415L0 415L0 332L0 332L0 249L0 249L0 166L0 166L0 83L0 83L0 0L0 0Z" fill="#3290d9"></path></svg>